<?xml version="1.0" standalone="no"?>
<!DOCTYPE svg PUBLIC "-//W3C//DTD SVG 20010904//EN"
 "http://www.w3.org/TR/2001/REC-SVG-20010904/DTD/svg10.dtd">
<svg version="1.0" xmlns="http://www.w3.org/2000/svg"
 width="260.000000pt" height="260.000000pt" viewBox="0 0 260.000000 260.000000"
 preserveAspectRatio="xMidYMid meet">
<metadata>
Created by potrace 1.11, written by Peter Selinger 2001-2013
</metadata>
<g transform="translate(0.000000,260.000000) scale(0.100000,-0.100000)"
fill="#000000" stroke="none">
<path d="M715 2576 c1 -12 6 -20 11 -18 5 2 8 10 6 19 -2 8 1 12 7 8 9 -5 9
-24 2 -53 -1 -1 -11 3 -23 9 -22 12 -22 11 -8 -6 14 -17 14 -18 -10 -5 -25 13
-25 13 -7 -8 14 -15 15 -22 6 -28 -7 -4 -10 -3 -5 4 9 14 -7 23 -24 12 -15
-10 -42 -2 -35 10 3 5 1 12 -5 15 -6 4 -9 1 -8 -7 2 -7 -2 -12 -9 -11 -7 2
-10 -3 -7 -10 5 -15 -23 -16 -45 -2 -11 6 -10 2 2 -15 12 -17 13 -27 4 -40
-10 -17 -12 -17 -25 -2 -7 9 -11 12 -8 5 7 -14 -3 -43 -15 -43 -5 0 -8 3 -8 8
1 4 1 16 0 27 -2 19 -3 18 -11 -2 -10 -23 -30 -32 -30 -12 0 5 5 7 10 4 6 -3
10 -1 10 5 0 7 -7 9 -16 6 -9 -3 -17 -6 -20 -6 -2 0 -1 -8 2 -17 4 -13 3 -14
-3 -5 -8 10 -23 11 -63 2 -3 0 5 -9 18 -20 13 -11 18 -21 12 -25 -5 -3 -10 -1
-10 4 0 6 -5 11 -11 11 -6 0 -8 -7 -5 -16 4 -10 2 -13 -6 -8 -8 5 -9 2 -5 -9
3 -9 1 -19 -5 -23 -7 -5 -8 -2 -3 6 6 10 4 12 -8 7 -9 -3 -19 -1 -23 5 -5 7
-2 8 6 3 8 -5 11 -4 6 3 -3 5 0 13 6 15 9 4 10 6 1 6 -6 1 -15 -4 -18 -9 -5
-8 -11 -8 -19 -1 -9 8 -13 7 -13 -4 0 -8 4 -12 8 -10 4 3 10 -2 13 -10 5 -13
2 -14 -17 -3 -12 7 -28 11 -36 9 -8 -1 -10 2 -5 11 4 8 3 10 -2 5 -9 -9 -10
-13 -13 -43 0 -9 -6 -12 -13 -8 -7 5 -9 2 -6 -8 4 -8 2 -21 -4 -29 -8 -11 -9
-10 -4 4 3 9 1 17 -4 17 -5 0 -7 8 -4 18 5 13 4 14 -4 3 -5 -7 -7 -22 -5 -32
3 -11 0 -19 -6 -19 -7 0 -9 5 -6 10 3 6 1 10 -5 10 -6 0 -8 -11 -6 -25 3 -13
0 -28 -6 -31 -7 -4 -8 -2 -4 4 4 7 2 12 -4 12 -6 0 -9 4 -6 8 3 5 -1 9 -9 9
-11 0 -12 -4 -4 -13 7 -9 4 -14 -11 -19 -12 -4 -19 -9 -16 -12 3 -4 2 -11 -2
-18 -4 -6 1 -2 11 9 15 16 20 17 30 6 7 -7 7 -10 1 -7 -6 3 -19 -4 -29 -16
-16 -19 -19 -19 -29 -5 -8 14 -12 13 -28 -8 -11 -13 -16 -29 -12 -36 5 -8 2
-9 -9 -5 -9 3 -19 1 -23 -5 -5 -7 -2 -8 6 -3 10 6 12 4 7 -8 -3 -9 -1 -18 6
-20 7 -3 0 -4 -16 -3 -15 2 -30 6 -35 11 -4 4 -1 5 6 1 6 -4 12 -2 12 4 0 7
-6 10 -12 8 -10 -4 -13 -178 -15 -820 l-2 -816 24 -4 c13 -3 23 -2 22 1 -2 6
7 11 18 11 3 0 1 -9 -4 -19 -8 -14 -7 -22 4 -31 8 -7 12 -16 9 -21 -3 -5 3 -6
12 -2 13 5 15 3 9 -8 -6 -11 -5 -12 6 -1 7 6 17 12 22 12 4 0 5 -6 0 -12 -10
-18 -13 -39 -3 -33 4 2 19 -10 34 -27 14 -18 26 -27 26 -21 0 6 -7 16 -15 23
-8 7 -12 17 -8 23 4 6 1 7 -7 2 -9 -6 -11 -4 -5 5 5 8 4 11 -3 6 -6 -3 -13 -2
-16 3 -4 5 2 8 11 6 10 -2 22 -4 26 -4 4 -1 7 -7 5 -15 -2 -8 2 -15 7 -16 6
-1 17 -8 26 -16 9 -8 19 -11 22 -7 4 3 7 1 7 -5 0 -7 7 -12 15 -12 8 0 15 6
15 13 0 9 2 9 9 -1 4 -8 11 -13 15 -13 21 3 26 -1 26 -20 0 -11 5 -17 10 -14
6 3 10 -1 10 -10 0 -10 -5 -13 -12 -9 -7 4 -8 3 -4 -5 6 -8 12 -9 20 -2 9 8
16 4 26 -13 10 -19 19 -24 44 -22 17 2 34 -2 38 -8 5 -6 8 -2 8 10 0 12 7 25
16 28 14 5 15 4 4 -9 -10 -12 -9 -16 4 -21 9 -3 16 -11 16 -16 0 -6 -6 -5 -15
2 -9 7 -15 8 -15 2 0 -16 33 -24 42 -10 5 9 8 10 8 1 0 -6 -4 -15 -10 -18 -5
-3 -10 -11 -10 -17 0 -6 9 -3 21 8 15 14 20 15 17 4 -2 -8 3 -14 10 -12 8 1
11 -2 8 -7 -3 -5 3 -11 15 -14 15 -4 18 -3 9 7 -8 10 -4 12 16 8 16 -3 25 -1
21 5 -3 5 0 10 8 10 8 0 14 -3 13 -6 -3 -32 6 -48 35 -61 17 -8 35 -14 39 -13
3 2 5 -9 3 -22 -2 -19 1 -23 10 -15 6 5 16 6 21 2 4 -4 2 1 -5 11 -19 24 -9
21 24 -7 15 -13 33 -22 39 -20 6 2 18 0 26 -6 12 -8 13 -11 2 -22 -9 -8 -12
-9 -10 -2 2 7 -1 14 -6 15 -5 2 -10 -4 -12 -14 -1 -9 2 -15 7 -11 5 3 9 1 9
-5 0 -6 178 -9 485 -10 l485 0 15 32 c14 29 14 30 0 13 -8 -11 -15 -14 -15 -8
0 20 4 26 18 29 8 1 20 10 27 20 11 14 16 16 26 6 15 -15 33 -17 25 -4 -4 5 3
7 15 4 16 -5 18 -8 7 -15 -10 -8 -10 -9 2 -5 8 2 14 10 12 16 -2 10 18 16 41
12 4 -1 3 7 -2 18 -8 14 -7 22 3 30 9 8 16 8 20 2 4 -5 -2 -12 -11 -14 -15 -4
-15 -5 -2 -6 9 0 23 7 30 16 8 9 9 14 3 10 -7 -4 -14 -1 -17 7 -4 10 0 12 14
9 10 -3 19 -8 19 -12 0 -4 11 -7 25 -7 14 0 25 6 25 14 0 7 5 10 10 7 6 -4 8
-10 6 -14 -3 -4 1 -8 9 -8 8 0 12 4 9 8 -2 4 -1 9 3 12 5 2 3 2 -4 1 -7 -2
-10 3 -6 11 3 8 9 12 15 9 11 -7 48 24 48 40 0 6 -9 0 -20 -14 l-20 -25 4 25
c1 14 8 25 15 25 6 0 16 7 22 15 9 13 10 12 5 -2 -7 -23 3 -23 21 0 8 9 12 11
8 4 -8 -16 7 -16 24 1 11 9 13 9 7 0 -5 -8 -1 -13 9 -13 10 0 13 -5 9 -12 -4
-7 -3 -8 4 -4 9 5 9 13 1 28 -7 12 -7 18 -1 14 6 -3 13 0 16 6 3 7 4 4 1 -7
-2 -11 0 -27 5 -35 6 -10 8 -2 7 27 -2 24 2 41 8 40 5 -1 9 4 7 11 -1 8 2 11
8 7 5 -3 13 1 16 9 8 20 21 21 21 1 0 -8 -5 -11 -10 -8 -6 3 -7 1 -3 -6 4 -6
13 -8 19 -4 7 4 15 8 19 8 3 0 10 4 15 9 5 5 3 6 -5 2 -6 -4 -12 -2 -12 3 0
14 17 14 25 1 4 -6 10 -8 15 -5 5 3 13 -3 19 -12 14 -24 14 -7 0 20 -7 12 -8
19 -4 15 5 -5 16 6 26 22 11 17 23 30 28 30 15 0 23 -18 11 -25 -5 -3 -10 -1
-10 5 0 6 -5 8 -11 4 -8 -4 -7 -9 2 -15 20 -12 46 16 31 33 -8 11 -7 14 9 15
12 1 17 -3 13 -9 -4 -7 -2 -8 4 -4 6 4 9 13 5 21 -3 9 0 21 6 29 6 7 7 17 3
21 -4 5 -2 5 5 1 7 -4 18 4 28 21 11 20 15 23 13 8 -2 -11 4 -21 14 -23 16 -3
17 52 17 807 0 612 -3 812 -12 819 -15 13 -29 13 -45 0 -15 -13 -21 -8 -27 21
-2 12 0 19 6 16 5 -4 7 -11 4 -16 -4 -5 2 -6 11 -2 11 4 13 8 6 11 -7 2 -9 9
-6 14 4 7 2 8 -4 4 -6 -3 -16 2 -22 11 -10 16 -11 16 -6 1 3 -10 0 -20 -6 -24
-7 -5 -9 3 -6 22 3 22 0 30 -12 31 -52 3 -69 8 -60 17 16 16 11 24 -12 20 -21
-4 -21 -4 -3 5 24 10 38 4 31 -15 -3 -8 -1 -14 4 -14 19 0 10 30 -15 46 -14 9
-22 20 -19 25 3 5 0 9 -5 9 -14 0 -14 -13 -1 -26 7 -7 6 -11 -5 -11 -8 0 -13
3 -10 5 3 3 -3 11 -13 19 -9 8 -11 12 -4 8 6 -3 12 -1 12 4 0 6 -7 11 -15 11
-8 0 -15 -5 -15 -12 0 -6 -3 -8 -7 -4 -5 4 1 14 11 22 19 14 19 14 -1 14 -12
0 -23 -6 -26 -12 -3 -10 -8 -10 -18 1 -8 8 -9 11 -2 7 6 -3 14 -2 17 3 7 11
-29 25 -43 16 -5 -3 -13 0 -17 6 -4 7 -3 9 3 6 5 -3 10 0 10 8 0 10 -4 12 -12
5 -7 -6 -19 -4 -32 5 -12 8 -33 16 -46 17 -21 2 -24 5 -16 19 14 27 11 35 -6
13 -15 -19 -16 -19 -13 1 2 16 -2 20 -24 19 -16 -1 -28 4 -28 10 0 6 -8 -2
-19 -17 -15 -23 -19 -26 -25 -12 -3 9 -11 13 -16 10 -6 -4 -9 -1 -8 7 2 7 -3
12 -9 11 -18 -4 -16 2 4 18 14 12 16 12 8 0 -6 -10 -4 -12 5 -6 9 6 11 4 5 -5
-6 -9 -4 -11 5 -5 8 5 11 4 7 -2 -3 -5 0 -10 8 -10 19 0 20 -2 -17 33 -17 16
-28 24 -25 18 3 -6 0 -11 -8 -11 -9 0 -11 6 -5 22 6 16 4 22 -6 22 -8 0 -13
-6 -10 -13 3 -8 0 -16 -6 -20 -7 -5 -8 -2 -3 6 6 10 4 12 -8 7 -9 -3 -19 -2
-22 4 -4 5 -3 8 2 7 4 -2 10 1 13 6 3 5 -2 10 -12 12 -12 1 -15 -4 -12 -22 2
-13 0 -24 -6 -24 -6 0 -9 4 -6 9 3 4 -2 17 -10 27 -14 17 -15 17 -10 2 3 -10
1 -18 -3 -18 -5 0 -11 5 -13 10 -2 6 -13 12 -24 12 -11 1 -21 8 -21 15 0 6 4
10 9 7 4 -3 8 0 8 6 0 6 4 8 10 5 6 -3 7 1 3 10 -3 9 -9 13 -12 8 -3 -4 -15
-9 -26 -11 -20 -4 -20 -4 0 11 18 14 -40 15 -533 16 -429 0 -551 -3 -545 -12
5 -9 3 -9 -8 -1 -23 18 -46 13 -44 -10z m1399 -148 c-8 -12 10 -10 27 4 7 7 6
4 -3 -7 -16 -17 -20 -18 -33 -4 -14 14 -14 16 -1 16 8 0 13 -4 10 -9z m-1684
-22 c-7 -7 -13 -7 -20 0 -6 6 -3 10 10 10 13 0 16 -4 10 -10z m1825 -66 c5
-12 4 -12 -6 -3 -10 10 -16 10 -28 0 -11 -9 -13 -9 -8 0 4 6 3 14 -3 18 -6 4
-8 10 -5 15 7 12 43 -9 50 -30z m-2153 -173 c-7 -8 -10 -17 -7 -21 3 -3 0 -2
-7 3 -8 8 -8 14 2 26 7 8 15 13 18 10 3 -2 0 -11 -6 -18z m2480 -68 c-2 -8 -8
-18 -13 -24 -7 -7 -8 -3 -3 9 5 12 4 17 -3 13 -5 -3 -10 0 -10 7 0 8 7 13 16
11 9 -1 15 -9 13 -16z m-2496 -1638 c-4 -5 0 -12 6 -14 8 -4 9 -6 2 -6 -6 -1
-17 6 -24 14 -10 12 -9 15 4 15 10 0 15 -4 12 -9z m331 -204 c6 -4 14 -2 16 3
3 6 4 5 3 -2 -2 -7 -14 -13 -27 -14 -30 0 -41 5 -34 16 6 9 24 8 42 -3z m1633
-83 c0 -8 -19 -13 -24 -6 -3 5 1 9 9 9 8 0 15 -2 15 -3z m-115 -54 c3 -6 -1
-7 -9 -4 -18 7 -21 14 -7 14 6 0 13 -4 16 -10z m-1153 -27 c-18 -7 -4 -23 16
-17 14 5 14 4 2 -4 -10 -8 -18 -8 -27 0 -14 12 -8 28 10 27 9 0 8 -2 -1 -6z"/>
<path d="M1878 2543 c7 -3 16 -2 19 1 4 3 -2 6 -13 5 -11 0 -14 -3 -6 -6z"/>
<path d="M655 2529 c-4 -6 -5 -12 -2 -15 2 -3 7 2 10 11 7 17 1 20 -8 4z"/>
<path d="M547 2465 c3 -8 9 -12 14 -9 12 7 11 11 -5 17 -10 4 -13 1 -9 -8z"/>
<path d="M435 2450 c-3 -6 1 -7 9 -4 18 7 21 14 7 14 -6 0 -13 -4 -16 -10z"/>
<path d="M2320 2350 c8 -5 20 -10 25 -10 6 0 3 5 -5 10 -8 5 -19 10 -25 10 -5
0 -3 -5 5 -10z"/>
<path d="M2536 471 c-14 -15 -15 -21 -4 -27 7 -4 10 -4 6 1 -4 4 0 14 8 23 14
13 17 13 26 1 8 -12 9 -12 6 0 -6 23 -23 23 -42 2z"/>
<path d="M2427 356 c-4 -10 -1 -13 9 -9 7 3 14 9 14 14 0 14 -17 10 -23 -5z"/>
<path d="M185 335 c0 -17 3 -21 13 -13 9 8 12 6 13 -8 0 -11 3 -14 5 -7 3 7
13 10 22 7 11 -4 10 -1 -3 7 -11 6 -27 18 -35 25 -13 11 -15 9 -15 -11z"/>
<path d="M282 325 c4 -4 3 -14 -3 -22 -7 -8 -8 -13 -1 -13 15 0 23 28 9 36 -7
4 -9 4 -5 -1z"/>
<path d="M2370 318 c0 -4 4 -8 9 -8 6 0 12 4 15 8 3 5 -1 9 -9 9 -8 0 -15 -4
-15 -9z"/>
<path d="M2295 310 c-3 -5 -1 -10 4 -10 6 0 11 5 11 10 0 6 -2 10 -4 10 -3 0
-8 -4 -11 -10z"/>
<path d="M2280 279 c0 -5 5 -7 10 -4 6 3 10 8 10 11 0 2 -4 4 -10 4 -5 0 -10
-5 -10 -11z"/>
<path d="M341 244 c0 -11 3 -14 6 -6 3 7 2 16 -1 19 -3 4 -6 -2 -5 -13z"/>
<path d="M2190 240 c-12 -7 -10 -9 7 -7 12 0 19 5 17 9 -6 10 -6 10 -24 -2z"/>
<path d="M513 155 c0 -8 4 -12 9 -9 4 3 8 9 8 15 0 5 -4 9 -8 9 -5 0 -9 -7 -9
-15z"/>
<path d="M600 160 c-13 -8 -12 -10 3 -10 9 0 17 5 17 10 0 12 -1 12 -20 0z"/>
<path d="M647 114 c-4 -4 -7 -12 -7 -18 0 -6 5 -4 10 4 9 13 10 13 11 0 1 -8
1 -18 0 -22 0 -3 6 -5 15 -4 8 1 14 5 14 9 0 4 -2 6 -5 5 -2 -2 -10 5 -17 15
-8 10 -17 15 -21 11z"/>
<path d="M1830 80 c0 -6 4 -9 9 -6 5 4 12 1 14 -4 3 -6 4 -5 3 2 -3 15 -26 23
-26 8z"/>
</g>
</svg>
